# xmcd CD database file
#
# Track frame offsets:
#	150
#	19629
#	38174
#	62934
#	81593
#
# Disc length: 1258 seconds
#
# Revision: 0
# Processed by: cddbd v1.5.2PL0 Copyright (c) Steve Scherf et al.
# Submitted via: CDex 1.51
#
DISCID=3c04e805
DTITLE=OldBoy - EP
DYEAR=2007
DGENRE=Country
TTITLE0=Inaction Man
TTITLE1=Hot Date
TTITLE2=Town
TTITLE3=He Owes Me Money
TTITLE4=Death
EXTD=YEAR: 2007
EXTT0=
EXTT1=
EXTT2=
EXTT3=
EXTT4=
PLAYORDER=
